name Walk9_EMG.mot
datacolumns 17
datarows 30
range 2.05500000 2.08400000
endheader
                time	            vasmed_r	            vaslat_r	            recfem_r	               gra_r	               sar_r	            tibant_r	           perlong_r	            addmag_r	           semimem_r	          bicfemlh_r	            gasmed_r	            gaslat_r	               sol_r	               tfl_r	              gmed_r	              gmax_r	
          2.05500000	         -0.00041819	          0.00000000	          0.00000000	          0.00000000	          0.00000000	          0.00872468	          0.00000000	          0.00000000	          0.00000000	          0.00000000	          0.00000000	          0.00000000	          0.00370958	          0.00000000	          0.00000000	          0.00000000	
          2.05600000	         -0.00041798	          0.00000000	          0.00000000	          0.00000000	          0.00000000	          0.00872565	          0.00000000	          0.00000000	          0.00000000	          0.00000000	          0.00000000	          0.00000000	          0.00371178	          0.00000000	          0.00000000	          0.00000000	
          2.05700000	         -0.00041694	          0.00000000	          0.00000000	          0.00000000	          0.00000000	          0.00872995	          0.00000000	          0.00000000	          0.00000000	          0.00000000	          0.00000000	          0.00000000	          0.00372020	          0.00000000	          0.00000000	          0.00000000	
          2.05800000	         -0.00041362	          0.00000000	          0.00000000	          0.00000000	          0.00000000	          0.00874261	          0.00000000	          0.00000000	          0.00000000	          0.00000000	          0.00000000	          0.00000000	          0.00374167	          0.00000000	          0.00000000	          0.00000000	
          2.05900000	         -0.00040577	          0.00000000	          0.00000000	          0.00000000	          0.00000000	          0.00877072	          0.00000000	          0.00000000	          0.00000000	          0.00000000	          0.00000000	          0.00000000	          0.00378427	          0.00000000	          0.00000000	          0.00000000	
          2.06000000	         -0.00039070	          0.00000000	          0.00000000	          0.00000000	          0.00000000	          0.00882237	          0.00000000	          0.00000000	          0.00000000	          0.00000000	          0.00000000	          0.00000000	          0.00385675	          0.00000000	          0.00000000	          0.00000000	
          2.06100000	         -0.00036551	          0.00000000	          0.00000000	          0.00000000	          0.00019730	          0.00890637	          0.00000000	          0.00000000	          0.00000000	          0.00000000	          0.00000000	          0.00000000	          0.00396804	          0.00000000	          0.00000000	          0.00000000	
          2.06200000	         -0.00032712	          0.00000000	          0.00000000	          0.00000000	          0.00052210	          0.00903245	          0.00000000	          0.00000000	          0.00000000	          0.00000000	          0.00000000	          0.00000000	          0.00412660	          0.00000000	          0.00000000	          0.00000000	
          2.06300000	         -0.00027207	          0.00000000	          0.00000000	          0.00000000	          0.00095621	          0.00921100	          0.00000000	          0.00000000	          0.00000000	          0.00000000	          0.00000000	          0.00000000	          0.00434013	          0.00000000	          0.00000000	          0.00000000	
          2.06400000	         -0.00019623	          0.00000000	          0.00000000	          0.00000000	          0.00151012	          0.00945220	          0.00000000	          0.00000000	          0.00000000	          0.00000000	          0.00000000	          0.00000000	          0.00461590	          0.00000000	          0.00000000	          0.00000000	
          2.06500000	         -0.00009463	          0.00000000	          0.00000000	          0.00000000	          0.00219377	          0.00976536	          0.00000000	          0.00000000	          0.00000000	          0.00000000	          0.00000000	          0.00000000	          0.00496145	          0.00000000	          0.00000000	          0.00000000	
          2.06600000	          0.00003818	          0.00009425	          0.00002512	          0.00009917	          0.00302001	          0.01015853	          0.00114639	          0.00021704	          0.00056274	          0.00007259	          0.00000000	          0.00085476	          0.00538739	          0.00027200	          0.00004151	          0.00017959	
          2.06700000	          0.00020780	          0.00035764	          0.00038793	          0.00051223	          0.00400649	          0.01063810	          0.00282452	          0.00071545	          0.00202291	          0.00027938	          0.00067611	          0.00235920	          0.00591255	          0.00071842	          0.00030544	          0.00076873	
          2.06800000	          0.00041997	          0.00068187	          0.00084598	          0.00103003	          0.00517502	          0.01120843	          0.00483325	          0.00131974	          0.00378581	          0.00053502	          0.00246534	          0.00414432	          0.00656525	          0.00124566	          0.00063412	          0.00148058	
          2.06900000	          0.00068085	          0.00107791	          0.00141252	          0.00166839	          0.00654966	          0.01187212	          0.00719082	          0.00204068	          0.00587042	          0.00084689	          0.00487615	          0.00623030	          0.00737772	          0.00186169	          0.00103325	          0.00231887	
          2.07000000	          0.00099690	          0.00155720	          0.00210595	          0.00244131	          0.00815510	          0.01263078	          0.00991149	          0.00288768	          0.00829060	          0.00122295	          0.00799510	          0.00863626	          0.00837967	          0.00257496	          0.00150775	          0.00328584	
          2.07100000	          0.00137508	          0.00213075	          0.00295033	          0.00336090	          0.01001511	          0.01348631	          0.01300528	          0.00386878	          0.01105503	          0.00167213	          0.01189673	          0.01138101	          0.00959568	          0.00339378	          0.00206227	          0.00438356	
          2.07200000	          0.00182367	          0.00280890	          0.00397229	          0.00443721	          0.01215129	          0.01444123	          0.01647927	          0.00499068	          0.01416795	          0.00220362	          0.01664200	          0.01448315	          0.01104564	          0.00432567	          0.00270108	          0.00561491	
          2.07300000	          0.00235342	          0.00360086	          0.00519722	          0.00567823	          0.01458197	          0.01549785	          0.02033987	          0.00625888	          0.01762999	          0.00282576	          0.02227587	          0.01795977	          0.01274660	          0.00537708	          0.00342749	          0.00698308	
          2.07400000	          0.00297812	          0.00451433	          0.00664681	          0.00709028	          0.01732127	          0.01665753	          0.02459352	          0.00767795	          0.02143804	          0.00354544	          0.02882899	          0.02182483	          0.01471639	          0.00655343	          0.00424361	          0.00849030	
          2.07500000	          0.00371417	          0.00555589	          0.00833800	          0.00867821	          0.02037841	          0.01792087	          0.02924451	          0.00925150	          0.02558484	          0.00436812	          0.03632289	          0.02608893	          0.01697801	          0.00785914	          0.00515076	          0.01013723	
          2.07600000	          0.00457901	          0.00673207	          0.01028305	          0.01044514	          0.02375742	          0.01928816	          0.03429222	          0.01098152	          0.03005908	          0.00529801	          0.04477438	          0.03075904	          0.01955952	          0.00929871	          0.00614964	          0.01192363	
          2.07700000	          0.00558901	          0.00804968	          0.01249134	          0.01239222	          0.02745738	          0.02075940	          0.03973006	          0.01286817	          0.03484583	          0.00633825	          0.05419532	          0.03583865	          0.02248839	          0.01087833	          0.00724068	          0.01384977	
          2.07800000	          0.00675802	          0.00951468	          0.01497112	          0.01451809	          0.03147275	          0.02233402	          0.04554621	          0.01490976	          0.03992676	          0.00749080	          0.06458957	          0.04133015	          0.02578613	          0.01260532	          0.00842465	          0.01591795	
          2.07900000	          0.00809670	          0.01113099	          0.01772930	          0.01681870	          0.03579425	          0.02401040	          0.05172491	          0.01710245	          0.04528023	          0.00875665	          0.07595128	          0.04723664	          0.02946756	          0.01448565	          0.00970314	          0.01813219	
          2.08000000	          0.00961233	          0.01290018	          0.02077051	          0.01928812	          0.04041194	          0.02578546	          0.05824738	          0.01944062	          0.05088200	          0.01013651	          0.08826675	          0.05356022	          0.03354518	          0.01652237	          0.01107819	          0.02049618	
          2.08100000	          0.01130889	          0.01482155	          0.02409628	          0.02192021	          0.04531858	          0.02765457	          0.06509209	          0.02191928	          0.05670640	          0.01163127	          0.10151817	          0.06029937	          0.03803649	          0.01871585	          0.01255160	          0.02301160	
          2.08200000	          0.01318721	          0.01689215	          0.02770488	          0.02470935	          0.05050903	          0.02961201	          0.07223488	          0.02453672	          0.06272692	          0.01324221	          0.11568275	          0.06744716	          0.04296743	          0.02106444	          0.01412443	          0.02567785	
          2.08300000	          0.01524555	          0.01910693	          0.03159219	          0.02764975	          0.05597685	          0.03165138	          0.07965009	          0.02729399	          0.06891575	          0.01497225	          0.13072759	          0.07499078	          0.04836739	          0.02356471	          0.01579730	          0.02849205	
          2.08400000	          0.01748083	          0.02145900	          0.03575293	          0.03073441	          0.06171359	          0.03376572	          0.08731225	          0.03019243	          0.07524352	          0.01682752	          0.14660755	          0.08291284	          0.05426235	          0.02621152	          0.01757033	          0.03144901	
